<svg id="Capa_1" enable-background="new 0 0 546.55 546.55" height="512" viewBox="0 0 546.55 546.55" width="512" xmlns="http://www.w3.org/2000/svg"><path d="m529.47 102.478h-51.239v-17.08c0-9.441-7.639-17.08-17.08-17.08h-68.319c-9.441 0-17.08 7.639-17.08 17.08v17.08h-204.955v-17.08c0-9.441-7.639-17.08-17.08-17.08h-68.319c-9.441 0-17.08 7.639-17.08 17.08v17.08h-51.238c-9.441 0-17.08 7.639-17.08 17.08v341.594c0 9.441 7.639 17.08 17.08 17.08h512.39c9.44 0 17.08-7.639 17.08-17.08v-341.594c0-9.441-7.639-17.08-17.08-17.08zm-17.079 341.594h-478.232v-307.435h478.231v307.435z"/><path d="m102.478 273.275h34.159v-34.159h34.159v-34.159h-34.159v-34.159h-34.159v34.159h-34.159v34.159h34.159z"/><path d="m375.753 204.956h102.478v34.159h-102.478z"/></svg>