<?xml version="1.0" encoding="iso-8859-1"?>
<!-- Generator: Adobe Illustrator 19.0.0, SVG Export Plug-In . SVG Version: 6.00 Build 0)  -->
<svg version="1.1" id="Layer_1" xmlns="http://www.w3.org/2000/svg" xmlns:xlink="http://www.w3.org/1999/xlink" x="0px" y="0px"
	 viewBox="0 0 513.714 513.714" style="enable-background:new 0 0 513.714 513.714;" xml:space="preserve">
<g>
	<g>
		<path d="M385.348,364.472c-2.205-2.081-4.776-3.55-7.591-4.285L275.405,257.837l109.942-109.942
			c6.366-6.366,6.366-16.038,0-22.527c-1.592-1.592-3.305-2.693-5.142-3.55L263.285,4.897c-3.55-3.55-8.203-5.142-12.732-4.775
			C249.94,0.122,249.45,0,248.838,0c-9.672,0-16.039,6.366-16.039,16.039v199.071l-81.905-81.906
			c-6.366-6.366-16.039-6.366-22.527,0c-6.366,6.366-6.366,16.038,0,22.527L230.35,257.714L130.081,357.984
			c-6.366,6.366-6.366,16.038,0,22.527c3.183,3.183,6.366,4.775,11.264,4.775c3.183,0,8.081-1.592,11.264-4.775l80.314-80.314
			v197.479c0,9.672,6.366,16.039,16.039,16.039c3.428,0,6.366-0.857,8.815-2.204c2.571-0.734,5.265-2.082,7.223-4.162
			L380.94,391.407c1.224-0.734,2.326-1.714,2.816-2.816l1.592-1.592C391.714,380.633,391.714,370.962,385.348,364.472z
			 M264.999,51.543l85.824,85.946l-85.824,85.823V51.543z M264.877,462.539V292.362l85.088,85.088L264.877,462.539z"/>
	</g>
</g>
<g>
</g>
<g>
</g>
<g>
</g>
<g>
</g>
<g>
</g>
<g>
</g>
<g>
</g>
<g>
</g>
<g>
</g>
<g>
</g>
<g>
</g>
<g>
</g>
<g>
</g>
<g>
</g>
<g>
</g>
</svg>
