<?xml version="1.0" encoding="UTF-8" standalone="no"?>
<svg xmlns="http://www.w3.org/2000/svg" version="1.1" width="24" height="24">
    <g transform="translate(0,-1028.3622)">
        <path d="M 14.5 6 A 1.5 1.5 0 0 0 13.087891 7 L 11 7 L 11 7.0019531 C 10.874896 7.003973 10.750168 7.0506135 10.654297 7.1464844 L 6.8007812 11 L 5.7285156 11 A 2 2 0 0 0 4 10 A 2 2 0 0 0 2 12 A 2 2 0 0 0 4 14 A 2 2 0 0 0 5.7304688 13 L 8.8320312 13 L 12.685547 16.853516 C 12.773276 16.941244 12.8858 16.983045 13 16.992188 L 13 17 L 14 17 L 14 18 L 17 18 L 17 15 L 14 15 L 14 16 L 13.246094 16 L 10.248047 13 L 19 13 L 19 15 L 22 12 L 19 9 L 19 11 L 8.2148438 11 L 11.214844 8 L 13.087891 8 A 1.5 1.5 0 0 0 14.5 9 A 1.5 1.5 0 0 0 16 7.5 A 1.5 1.5 0 0 0 14.5 6 z " fill="#000" stroke="none" transform="translate(0,1028.3622)"/>
    </g>
</svg>
